<?xml version="1.0" encoding="utf-8"?>
<!-- Generator: Adobe Illustrator 26.3.1, SVG Export Plug-In . SVG Version: 6.00 Build 0)  -->
<svg version="1.1" id="Layer_1" xmlns="http://www.w3.org/2000/svg" xmlns:xlink="http://www.w3.org/1999/xlink" x="0px" y="0px"
	 viewBox="0 0 339.9 73.5" style="enable-background:new 0 0 339.9 73.5;" xml:space="preserve">
<g>
	<path d="M51.5,42.6c0,5.3-1.9,9.7-5.8,13.7c-3.9,3.8-8.3,5.6-13.5,5.6c-5.2,0-9.7-1.9-13.6-5.6c-3.9-3.9-5.7-8.3-5.7-13.7V2.8H2
		v38.7c0,8.8,2.9,16.3,8.5,22.2c5.8,5.9,13.1,8.9,21.7,8.9c8.7,0,15.9-3,21.6-8.9c5.7-5.9,8.6-13.3,8.6-22.2V2.8H51.5V42.6z"/>
	<path d="M101.6,1.3c-8.6,0-15.9,3-21.7,8.9c-5.7,5.9-8.6,13.3-8.6,22V71h10.9V31.3c0-5.3,1.9-9.8,5.7-13.7
		c3.8-3.8,8.4-5.7,13.7-5.7c5.2,0,9.6,1.9,13.4,5.7c3.9,3.9,5.9,8.4,5.9,13.7V71h10.9V32.3c0-8.8-2.9-16.2-8.6-22
		C117.4,4.3,110.2,1.3,101.6,1.3z"/>
	<path d="M170.2,31.7l-7.7-2.6c-5.6-1.9-8.1-4.8-7.8-9.1c0.1-4.4,3.7-8,8.3-8.1c4.3,0,8.7,2.5,8.7,6.8v2.5h11.3l-0.2-3
		c-0.4-5-2.6-9-6.7-12.3c-4-3.3-8.5-4.9-13.2-4.6c-5.4,0.2-10.1,2.3-14,6.1c-3.8,3.8-5.6,8.5-5.4,13.9c0.4,8.9,4.9,14.8,13.5,17.5
		l7.8,2.4c6.1,2,9,5.4,8.9,10.6c-0.1,3.1-1,5.5-2.7,7.2c-2,2-4.6,3-8.2,3.1c-2.5,0.1-4.9-1-7.1-3.2c-2.3-2.3-3.4-4.4-3.4-6.3v-3.2
		h-11.2v1c0,5.9,2,11.1,5.8,15.3c4.1,4.3,9,6.7,14.7,7c0.5,0,0.9,0,1.4,0c5.7,0,10.9-2.1,15.4-6.2c4.9-4.6,7.1-10.1,6.6-16.3
		C184.5,41,179.5,34.8,170.2,31.7z"/>
	<path d="M232.5,1L232.5,1c-10-0.6-18.9,2.9-26.4,10.3c-7.4,7.2-11,16.1-10.7,26.2c0.1,9.5,3.8,17.9,11,24.9
		c7,6.7,15.1,10.1,24.2,10.1c0.2,0,0.3,0,0.5,0c7.5-0.1,14.1-2.3,20.2-6.6c6-4.3,10.4-10.1,12.9-17.4l0.5-1.3h-11.4l-0.3,0.6
		c-4.4,9.3-11.4,13.8-21.5,13.9c-6.4,0.1-11.9-1.9-16.8-6.1c-4.4-3.8-7.1-8.8-8-14.7h59.3v-5.8c0-8.5-3.3-16.2-9.7-23
		C249.5,5.4,241.6,1.6,232.5,1z M254.8,30.8h-48.2c1.4-5.6,4.1-10,8.3-13.4c4.6-3.7,10-5.6,16.1-5.5c6.1,0.1,11.4,2,15.7,5.7
		C250.8,21,253.5,25.4,254.8,30.8z"/>
	<path d="M329.3,10.2c-5.8-5.9-13-8.9-21.6-8.9c-8.6,0-15.9,3-21.7,8.9c-5.7,5.9-8.6,13.3-8.6,22V71h10.9V31.3
		c0-5.3,1.9-9.8,5.7-13.7c3.8-3.8,8.4-5.7,13.7-5.7c5.2,0,9.6,1.9,13.4,5.7c3.9,3.9,5.9,8.4,5.9,13.7V71h10.9V32.3
		C337.9,23.5,335,16.1,329.3,10.2z"/>
</g>
</svg>
